<svg viewBox="0 0 120 60" xmlns="http://www.w3.org/2000/svg"><path d="m15.8 32.5h-8.7v.4.4.4.3c.1.7.3 1.4.5 2.1s.1.3.1.3 0 .3 0 .3v.3.3.2s.1.2.1.2v.2s.1.1.1.1v.2h.1v.3h.2l.2.3s7.4-4.4 7.4-4.4c-.3-.6-.5-1.3-.5-1.9zm-8.3 3.9s.3 0 .3 0z" fill="#93d500"/><path d="m18 36.5-6.1 6.1s.3.3.3.3l.2.2s.2.2.2.2.3.2.3.2l1.1.8s.2.2.2.2h.1s.1.2.1.2h.2v.1l.7.3 3.3-8c-.3-.2-.7-.4-1-.6z" fill="#4d5a31"/><path d="m17.3 35.8-.2-.2-.2-.2-.2-.2-.2-.2-7.4 4.5.4.6s0 0 0 0l.4.6s0 0 0 0l.2.2.2.3s.2.3.2.3.2.3.2.3v.1h.1v.2l.2.2 6.1-6.1-.2-.2z" fill="#6ba43a"/><path d="m25.4 36.5-.2.2s4.5 7.4 4.5 7.4l.6-.4c.4-.3.9-.7 1.3-1l-6.1-6.1z" fill="#4d5a31"/><g fill="#93d500"><path d="m29.1 44.4s0 0 0 0z"/><path d="m29.2 44.4s0 0 0 0zm-.1 0s0 0 0 0z"/><path d="m29.1 44.4s0 0 0 0zm0 0s0 0 0 0z"/><path d="m29.1 44.4s0 0 0 0zm0 0s0 0 0 0zm0 0s0 0 0 0zm.1 0s0 0 0 0zm0 0s0 0 0 0z"/><path d="m29.1 44.4s0 0 0 0z"/><path d="m29.1 44.1-4.3-7.2h-.3c0 .1-.3.3-.3.3-.8.4-1.7.6-2.5.6-.6 0-1.1 0-1.7-.2h-.3s-.3-.2-.3-.2l-3.3 8s0 0 0 0 .6.2.6.2c1 .3 2 .6 3 .7h.1.4s0 0 0 0h.3s0 0 0 0h.3s.2 0 .2 0h.2s.4 0 .4 0c.8 0 1.6 0 2.4-.2s.3 0 .3 0h.1s.1 0 .1 0h.2c1.2-.3 2.4-.7 3.5-1.3s.2-.1.2-.1l.4-.2s0 0 0 0l-.2-.3zm-11.1-16.8.2-.2s-4.5-7.4-4.5-7.4l-.6.4c-.4.3-.8.7-1.3 1l6.1 6.1z"/></g><path d="m11.4 21.6-.4.4c-.5.5-.9 1-1.2 1.5s-.1.3-.1.3v.2c-.1 0-.2 0-.2 0-1.4 2.2-2.2 4.7-2.3 7.2v.3s0 .3 0 .3h8.7v-.3s0-.3 0-.3c.1-1.2.6-2.3 1.3-3.2 0 0 .1-.1.2-.2s.1-.1.2-.2l-6.1-6.1zm17.9-2.2s-.2-.2-.2-.2h-.1s-.1-.2-.1-.2h-.2c0-.1 0-.1 0-.1-.5-.3-1-.5-1.6-.7s-.4-.1-.4-.1c-.9-.3-1.9-.6-2.9-.7h-.1s-.1 0-.1 0h-.2s0 0 0 0h-.3s-.4 0-.4 0h-.1s0 8.7 0 8.7c.4 0 .9.1 1.3.3l6.4-6.4c-.2-.2-.5-.3-.7-.5z" fill="#4d5a31"/><path d="m14.2 19.4.2.3zm0 0s0 0 0 0z" fill="#6ba43a"/><path d="m21.4 17.3h-.3c-.6 0-1.2 0-1.8.2s-.3 0-.3 0h-.1s-.1 0-.1 0h-.2c-1.2.3-2.4.7-3.5 1.3l-.7.4s4.5 7.4 4.5 7.4h.3c0-.2.2-.2.3-.3.6-.3 1.3-.5 1.9-.5h.3s.2 0 .3 0v-8.7s-.2 0-.3 0z" fill="#6ba43a"/><path d="m36.2 31.2v-.2s0-.1 0-.1v-.3s0 0 0 0v-.3s0 0 0 0 0-.3 0-.3c0-.7-.2-1.4-.4-2s0-.3 0-.3 0-.3 0-.3v-.3c0-.1 0-.3 0-.3v-.2s-.1-.2-.1-.2v-.2s-.1-.1-.1-.1v-.2c-.1 0-.1 0-.1 0v-.3c-.1 0-.2 0-.2 0l-.2-.3s0 0 0 0c-.3-.5-.5-.9-.8-1.3l-6.4 6.4c.1.4.2.9.3 1.3h8.7z" fill="#4d5a31"/><path d="m27.6 31.9v.3s0 .3 0 .3c-.1 1.1-.5 2.2-1.3 3.2 0 0-.1.1-.2.2s-.1.1-.2.2l6.1 6.1s.1-.1.2-.2l.2-.2c.5-.5.9-1 1.2-1.5s.1-.3.1-.3v-.2h.2c1.4-2.2 2.2-4.7 2.3-7.2v-.3s0-.3 0-.3h-8.7z" fill="#6ba43a"/><g fill="#424143"><path d="m38.8 14.7c-1.6-1.6-4.2-1.6-5.7 0-1.3 1.3-1.5 3.2-.8 4.7l-8.8 8.8c-1.5-.8-3.4-.5-4.7.8-1.6 1.6-1.6 4.2 0 5.7 1.6 1.6 4.2 1.6 5.7 0 1.3-1.3 1.5-3.2.8-4.7l8.8-8.8c1.5.8 3.4.5 4.7-.8 1.6-1.6 1.6-4.2 0-5.7z"/><path d="m42.6 32.4c0-3.5 2.5-5.9 6-5.9s6 2.5 6 5.9-2.5 5.9-6 5.9-6-2.5-6-5.9zm9.5 0c0-2.2-1.4-3.8-3.5-3.8s-3.5 1.6-3.5 3.8 1.4 3.8 3.5 3.8 3.5-1.6 3.5-3.8z"/><path d="m55.9 38.1v-11.5h5.4c2.5 0 3.9 1.7 3.9 3.7s-1.4 3.7-3.9 3.7h-2.9v4.1h-2.4zm6.7-7.8c0-1-.7-1.5-1.7-1.5h-2.6v3.1h2.6c1 0 1.7-.6 1.7-1.5z"/><path d="m66.2 38.1v-11.5h8.1v2.2h-5.7v2.4h5.6v2.2h-5.6v2.6h5.7v2.2h-8.1zm17.6 0-5.5-7.5v7.5h-2.4v-11.5h2.5l5.3 7.2v-7.2h2.4v11.5h-2.4zm12.7 0-.7-1.9h-4.9l-.7 1.9h-2.8l4.4-11.5h3.1l4.4 11.5zm-3.2-9-1.8 4.9h3.6z"/><path d="m99.9 38.1v-11.5h5.4c2.5 0 3.9 1.7 3.9 3.7s-1.4 3.7-3.9 3.7h-2.9v4.1h-2.4zm6.7-7.8c0-1-.7-1.5-1.7-1.5h-2.6v3.1h2.6c1 0 1.7-.6 1.7-1.5z"/><path d="m110.2 38.1v-11.5h2.4v11.5z"/></g></svg>