<svg fill="none" height="41" viewBox="0 0 41 41" width="41" xmlns="http://www.w3.org/2000/svg"><g fill="#ffb30f"><path d="m36.1764 20.7112c0-8.6523-7.0137-15.66677-15.6661-15.66695-8.6524 0-15.66695 7.01455-15.66695 15.66695.00018 8.6524 7.01465 15.6661 15.66695 15.6661 8.6522-.0002 15.6659-7.0139 15.6661-15.6661zm2 0c-.0002 9.7568-7.9093 17.6659-17.6661 17.6661-9.7569 0-17.66677-7.9092-17.66695-17.6661 0-9.757 7.90995-17.66695 17.66695-17.66695 9.7569.00018 17.6661 7.91005 17.6661 17.66695z"/><path d="m26.3775 23.4427v.001c.3315-.4411.9579-.5304 1.3994-.1992.4415.3313.5311.9577.2002 1.3994l-1.1142-.835c.0877.0659.1912.1437.3135.2354.7678.5759.7988.5993.7998.6006l-.001.001-.001.0019c-.0009.0011-.0018.0025-.0029.0039-.0025.0033-.006.0078-.0098.0127-.0075.0097-.0179.0225-.0303.0381-.0249.0315-.0599.0749-.1045.1279-.0892.1063-.2175.2533-.3837.4268-.3319.3463-.8192.8045-1.4493 1.2627-1.2562.9135-3.1248 1.8573-5.4834 1.8574-2.3588 0-4.2281-.9438-5.4843-1.8574-.6301-.4582-1.1174-.9164-1.4493-1.2627-.1662-.1735-.2945-.3205-.3837-.4268-.0447-.0531-.0796-.0964-.1045-.1279-.0125-.0157-.0228-.0283-.0303-.0381-.0037-.0048-.0063-.0094-.0088-.0127-.0012-.0016-.003-.0027-.0039-.0039l-.001-.0019-.001-.001c.0001-.0006.0168-.0133.7998-.6006.1223-.0917.2258-.1695.3135-.2354l-1.1133.835c-.3312-.4418-.2415-1.0681.2002-1.3994.4418-.3312 1.0671-.2413 1.3985.2002l.001-.001c.0022.0029.0069.0091.0136.0176.0137.0173.0368.0453.0684.083.0637.076.1627.1902.2959.3291.2671.2787.6659.6542 1.1816 1.0293 1.0354.7529 2.5001 1.4746 4.3076 1.4746 1.8077-.0001 3.2723-.7216 4.3077-1.4746.5156-.375.9135-.7506 1.1806-1.0293.1332-.1389.2331-.2531.2969-.3291.0317-.0377.0547-.0658.0684-.083.0068-.0086.0114-.0147.0136-.0176z"/><path d="m15.5266 14.7109.1026.0049c.5041.0513.8974.4774.8974.9951s-.3933.9439-.8974.9952l-.1026.0048h-.0166c-.5523 0-1-.4477-1-1 0-.5522.4477-1 1-1z"/><path d="m25.5266 14.7109.1026.0049c.5041.0513.8974.4774.8974.9951s-.3933.9439-.8974.9952l-.1026.0048h-.0166c-.5523 0-1-.4477-1-1 0-.5522.4477-1 1-1z"/></g></svg>