<svg fill="none" height="1563" viewBox="0 0 2070 1563" width="2070" xmlns="http://www.w3.org/2000/svg" xmlns:xlink="http://www.w3.org/1999/xlink"><linearGradient id="a" gradientUnits="userSpaceOnUse" x1="1034" x2="1034" y1="650" y2="912"><stop offset="0" stop-color="#444"/><stop offset="1" stop-color="#c8c8c8"/></linearGradient><clipPath id="b"><path d="m0 0h2069.61v1563h-2069.61z"/></clipPath><g clip-path="url(#b)"><path d="m0 0h2069.61v1563h-2069.61z" fill="#dbdbdb"/><g stroke="#d4d4d4" stroke-width="10"><path d="m-532-309.581c1265.882-1314.549 1474.86 1144.893 2690-17.367"/><path d="m-532-259.581c1265.882-1314.549 1474.86 1144.893 2690-17.367"/><path d="m-532-209.581c1265.882-1314.549 1474.86 1144.893 2690-17.367"/><path d="m-532-159.581c1265.882-1314.549 1474.86 1144.893 2690-17.367"/><path d="m-532-109.581c1265.882-1314.549 1474.86 1144.891 2690-17.367"/><path d="m-532-59.5814c1265.882-1314.5486 1474.86 1144.8914 2690-17.367"/><path d="m-532-10.5814c1265.882-1314.5486 1474.86 1144.8914 2690-17.367"/><path d="m-532 39.4186c1265.882-1314.5486 1474.86 1144.8914 2690-17.367"/><path d="m-532 89.4186c1265.882-1314.5486 1474.86 1144.8914 2690-17.367"/><path d="m-532 139.419c1265.882-1314.549 1474.86 1144.891 2690-17.367"/><path d="m-532 189.419c1265.882-1314.549 1474.86 1144.891 2690-17.367"/><path d="m-532 239.419c1265.882-1314.549 1474.86 1144.891 2690-17.367"/><path d="m-532 291.419c1265.882-1314.549 1474.86 1144.891 2690-17.367"/><path d="m-532 341.419c1265.882-1314.551 1474.86 1144.891 2690-17.367"/><path d="m-532 391.419c1265.882-1314.551 1474.86 1144.891 2690-17.367"/><path d="m-532 441.419c1265.882-1314.551 1474.86 1144.891 2690-17.367"/><path d="m-532 491.419c1265.882-1314.551 1474.86 1144.891 2690-17.367"/><path d="m-532 541.419c1265.882-1314.551 1474.86 1144.891 2690-17.367"/><path d="m-532 590.419c1265.882-1314.551 1474.86 1144.891 2690-17.367"/><path d="m-532 640.419c1265.882-1314.551 1474.86 1144.891 2690-17.367"/><path d="m-532 690.419c1265.882-1314.551 1474.86 1144.891 2690-17.367"/><path d="m-532 740.419c1265.882-1314.551 1474.86 1144.891 2690-17.367"/><path d="m-532 790.419c1265.882-1314.551 1474.86 1144.891 2690-17.367"/><path d="m-532 840.419c1265.882-1314.551 1474.86 1144.891 2690-17.367"/><path d="m-532 892.419c1265.882-1314.551 1474.86 1144.891 2690-17.367"/><path d="m-532 942.419c1265.882-1314.551 1474.86 1144.891 2690-17.367"/><path d="m-532 992.419c1265.882-1314.551 1474.86 1144.891 2690-17.367"/><path d="m-532 1042.42c1265.882-1314.552 1474.86 1144.89 2690-17.37"/><path d="m-532 1092.42c1265.882-1314.552 1474.86 1144.89 2690-17.37"/><path d="m-532 1142.42c1265.882-1314.552 1474.86 1144.89 2690-17.37"/><path d="m-532 1191.42c1265.882-1314.552 1474.86 1144.89 2690-17.37"/><path d="m-532 1241.42c1265.882-1314.5516 1474.86 1144.89 2690-17.37"/><path d="m-532 1291.42c1265.882-1314.5516 1474.86 1144.89 2690-17.37"/><path d="m-532 1341.42c1265.882-1314.5516 1474.86 1144.89 2690-17.37"/><path d="m-532 1391.42c1265.882-1314.5516 1474.86 1144.89 2690-17.37"/><path d="m-532 1441.42c1265.882-1314.552 1474.86 1144.89 2690-17.37"/><path d="m-532 1493.42c1265.882-1314.552 1474.86 1144.89 2690-17.37"/><path d="m-532 1543.42c1265.882-1314.552 1474.86 1144.89 2690-17.37"/><path d="m-532 1593.42c1265.882-1314.552 1474.86 1144.89 2690-17.37"/><path d="m-532 1643.42c1265.882-1314.552 1474.86 1144.89 2690-17.37"/><path d="m-532 1693.42c1265.882-1314.552 1474.86 1144.89 2690-17.37"/><path d="m-532 1743.42c1265.882-1314.552 1474.86 1144.89 2690-17.37"/><path d="m-532 1792.42c1265.882-1314.552 1474.86 1144.89 2690-17.37"/><path d="m-532 1842.42c1265.882-1314.552 1474.86 1144.89 2690-17.37"/><path d="m-532 1892.42c1265.882-1314.552 1474.86 1144.89 2690-17.37"/><path d="m-532 1942.42c1265.882-1314.552 1474.86 1144.89 2690-17.37"/></g><path clip-rule="evenodd" d="m1129.54 714.806c17.74 0 32.12-14.508 32.12-32.403s-14.38-32.403-32.12-32.403-32.12 14.508-32.12 32.403 14.38 32.403 32.12 32.403zm-88.9 196.216h-184.845c-10.809 0-17.404-11.882-11.691-21.058l123.273-197.971c5.305-8.518 17.605-8.74 23.129-.362 19.284 29.241 58.824 89.325 92.844 141.687l35.71-57.685c5.18-8.375 17.22-8.758 22.93-.73l81.43 114.565c6.45 9.07.08 21.646-11.05 21.756l-78.91.776z" fill="url(#a)" fill-rule="evenodd"/></g></svg>