<svg fill="none" height="32" viewBox="0 0 32 32" width="32" xmlns="http://www.w3.org/2000/svg"><g clip-rule="evenodd" fill="#ab7500" fill-rule="evenodd"><path d="m16.0001 3.66406c-6.81153 0-12.33335 5.52182-12.33335 12.33334 0 6.8115 5.52182 12.3333 12.33335 12.3333 6.8115 0 12.3333-5.5218 12.3333-12.3333 0-6.81152-5.5218-12.33334-12.3333-12.33334zm-14.33335 12.33334c0-7.91609 6.41725-14.33334 14.33335-14.33334s14.3333 6.41725 14.3333 14.33334c0 7.9161-6.4172 14.3333-14.3333 14.3333s-14.33335-6.4172-14.33335-14.3333z"/><path d="m16 7c.5523 0 1 .44772 1 1v7.382l4.7805 2.3902c.494.247.6943.8477.4473 1.3417s-.8477.6942-1.3417.4472l-5.3333-2.6667c-.3388-.1694-.5528-.5156-.5528-.8944v-8c0-.55228.4477-1 1-1z"/></g></svg>